# xmcd
#
# Track frame offsets:
#	150
#	16537
#	31139
#	49270
#	64446
#	78374
#	96476
#	110030
#	127324
#	146758
#	166111
#	183760
#	198762
#	212265
#	227416
#	244238
#	259219
#	276582
#	291825
#
# Disc length: 4119 seconds
#
# Revision: 0
# Processed by: cddbd v1.4PL0 Copyright (c) Steve Scherf et al.
# Submitted via: dBpowerAMP V4.0
#
DISCID=15101513
DTITLE=Γιάννης Πλούταρχος - Πάει λίγος καιρός
DYEAR=2003
DGENRE=Country
TTITLE0=Απόψε γνώρισε με
TTITLE1=Πανσέληνος
TTITLE2=Πάει λίγος καιρός
TTITLE3=Πώς να γίνουμε ξένοι
TTITLE4=Πού νά'σαι τώρα 
TTITLE5=Το γράμμα
TTITLE6=Συνείδησή μου
TTITLE7=Μόνο εσύ
TTITLE8=Πώς μπορώ να σε ξεχάσω
TTITLE9=Όταν θα φύγεις
TTITLE10=Χρώμα της ζωής
TTITLE11=Πες μου γιατί μελαγχολείς
TTITLE12=Κλείνω αργά τα βλέφαρά μου
TTITLE13=Να με θυμάσαι δυνατό
TTITLE14=Καρδιά μου ποιος
TTITLE15=Στροφή καλοκαιριού
TTITLE16=Μην αφήνεις εδώ
TTITLE17=Το πουκάμισο
TTITLE18=Γιατί είσαι όλα αυτά που δεν μπορώ να πω
EXTD=The last album of Yiannis  Ploutarhos. 
EXTT0=
EXTT1=
EXTT2=
EXTT3=
EXTT4=
EXTT5=
EXTT6=
EXTT7=
EXTT8=
EXTT9=
EXTT10=
EXTT11=
EXTT12=
EXTT13=
EXTT14=
EXTT15=
EXTT16=
EXTT17=
EXTT18=
PLAYORDER=
